<svg id="Слой_1" data-name="Слой 1" xmlns="http://www.w3.org/2000/svg" viewBox="0 0 383.17 216.22"><defs><style>.cls-1{fill:#fff;}</style></defs><path class="cls-1" d="M383.17,169.48c-1,3.44-1.77,6.93-2.93,10.31-7.08,20.71-25.85,35.43-47.64,36.05-22.81.65-45.65.27-68.47.25-4.06,0-6.4-2.41-6.27-5.85s2.67-5.5,6.7-5.51c21.71,0,43.41.05,65.12,0a42.66,42.66,0,0,0,42.25-41.77c0-.86,0-1.72,0-2.64-57.7,7-114.43,16.86-166.75,44.23,1.26.07,2.52.19,3.78.2,9.23,0,18.47-.18,27.69.16a8.31,8.31,0,0,1,5.57,3.37c.83,1.19.42,4-.48,5.4a6.44,6.44,0,0,1-4.68,2.36c-10.47.2-20.95.23-31.43,0a11.7,11.7,0,0,1-11.72-9.61c-1.15-5.92,1.39-11,7.21-13.74a438.18,438.18,0,0,1,62.68-23.9c1.13-.33,2.23-.74,3.35-1.11l-.12-1H190.52l-.93.53a23.35,23.35,0,0,1,3.45,2.46c7.13,7.26,4.57,18.38-5,21.68-11.59,4-22.4,2-32.24-5-10.55-7.58-21.42-14.59-33.54-19.39-3.56-1.42-7.55-1.78-11.34-2.62l-.63,1.08c1.39,3.55,2.69,7.14,4.19,10.63a12,12,0,0,1-1.22,12.36c-3.31,4.84-6.5,9.75-9.64,14.69A11.85,11.85,0,0,1,93,208.93c-8.61,0-17.21.06-25.82,0-4.72,0-8.47-1.93-10.63-6.31s-1.48-8.8,1.84-12.1c3.67-3.64,8-6.62,12.12-9.79a27,27,0,0,1,3.79-2.1L68.88,165H58c-11.1,0-22.2.08-33.31-.05A24.68,24.68,0,0,1,0,139.79C.22,129.72.69,119.61,4.36,110A52.42,52.42,0,0,1,22.78,85.58c5-3.64,10.33-7,15.7-10.11s10.73-5.71,16.63-8.8c.27-4.27.61-9.33.92-14.39A179.73,179.73,0,0,1,64,9.84C67.27-.64,78.86-3.33,86.51,4.6c9.47,9.83,11.28,21.58,9,34.66C94.08,47.43,93.8,55.8,92.9,65.21c1.66-1.36,2.42-1.87,3-2.51,11.51-12,20.19-25.44,23.91-41.95C122,11,128.46,4.31,138,.93c8.92-3.16,17.47,2.95,17.65,12.38C155.87,27.4,153.34,41,149,54.83c2-.16,3.81-.4,5.6-.43,3.49-.07,6,2,6.27,5.1.31,3.3-1.44,5.69-5,6.25-2.82.44-5.73.27-8.56.65-1.22.16-2.92.72-3.42,1.64-3.35,6.2-6.43,12.54-9.68,19,4.79,0,9.5-.22,14.17.06s9.12,1.12,13.7,1.61c5.16.56,10.34,1.43,15.51,1.43,24.32,0,48.65-.72,73-.31,43.6.75,82,14.87,113.09,46.31,2.52,2.55,4.7,5.44,8,7.89-1.53-5.06-2.67-10.28-4.67-15.15C360,111.93,347.25,100,332.38,90.07a149.29,149.29,0,0,0-85.67-25.44c-21,.18-41.89.87-62.85,1.11a10.4,10.4,0,0,1-6.67-2.25c-3-2.77-1.2-7.58,2.9-8.77a15.69,15.69,0,0,1,4.06-.42c20.83-.44,41.66-1.36,62.48-1.19,43.05.36,81.21,13.91,112.45,44.28,12.93,12.56,21.22,27.85,23.49,46a5.16,5.16,0,0,0,.6,1.34Zm-22.68-19.42c-1.42-1.75-2.27-2.95-3.28-4-27.09-28.86-61.17-42.54-100-44.51-20.52-1-41.14-.12-61.71-.06a17.72,17.72,0,0,0-2.41.35c4.58,5.58,6,9.2,5.51,13.79-1.22,11.62-13.2,19.11-24.9,15.85a166.65,166.65,0,0,0-19.23-4.26c-7.51-1.15-15,0-22.63,1.57.47.59.57.86.76.93,14.91,5.91,28.53,14.08,41.46,23.51a8.1,8.1,0,0,0,4.45,1.25c30,.39,60.09.81,90.14,1,22.63.12,45.32,2.59,67.87-1.6C344.18,152.39,351.94,151.39,360.49,150.06ZM116.3,114.92c-1.88-6.1-2.87-11.68-5.24-16.59C102.68,81,81,72.27,60.55,77.78,48.13,81.13,38,88.75,27.88,96.15c-8,5.86-12.74,14.29-14.54,24.07-1,5.25-1.15,10.64-1.84,15.94-1.38,10.66,4.64,17.6,15.43,17.6h88v-7.61c-9.38,0-18.47,0-27.56,0-5,0-7.48-2-7.44-5.86s2.4-5.65,7.22-5.69c8-.07,16,0,23.94,0,1.31,0,2.62-.12,3.84-.18v-8c-6.12,0-12,.07-17.81,0-1.7,0-4,0-4.93-1a9.42,9.42,0,0,1-2.43-6c.13-3,2.69-4.36,5.58-4.4C101.83,114.86,108.3,114.92,116.3,114.92Zm3-27c.52-.73,1.2-1.62,1.8-2.55,1.67-2.62,3.4-5.22,5-7.91,11.09-19.18,17.71-39.69,18.17-62,.09-4.1-1-4.78-4.56-2.92A17.4,17.4,0,0,0,130.45,25c-2.92,13.42-9.22,25.17-17.73,35.8-3.24,4.05-6.73,7.92-9.7,11.4Zm7.76,29.89a7.08,7.08,0,0,0,1.46,0c16.28-3.51,32.34-3.15,48.12,2.59a8.25,8.25,0,0,0,3.65.44c3.2-.38,5.72-2,6.64-5.19,1-3.31-1.36-4.88-3.86-6.38a75.08,75.08,0,0,0-32.28-10.67c-8.79-.78-17.59-.41-25.85,2.24Zm-.45,21.64c0,5.74-.11,10.34.08,14.92a3.78,3.78,0,0,0,1.83,2.74c12.48,5.51,23.87,12.82,34.93,20.71,5.71,4.08,12.18,4.79,18.9,3.38a12.51,12.51,0,0,0,3.12-1.69,13.28,13.28,0,0,0-1.83-3,178.1,178.1,0,0,0-40.76-29.4C137.89,144.44,132.66,142.22,126.65,139.41ZM66.12,65H82c.06-.43.17-1,.22-1.63.78-9.52,1.21-19.09,2.43-28.55,1.05-8.12-.18-15.32-5.62-21.56-2.35-2.7-3.43-2.49-4.34,1C73,20.71,71,27.16,70,33.74,68.34,43.87,67.42,54.1,66.12,65ZM67.85,196.1l.6,1.23c3.1,0,6.2,0,9.3,0,5.33-.08,11.59,1.49,15.74-.78s6.18-8.4,9.14-12.84a2.9,2.9,0,0,0,.58-.95c.17-1,.6-2.19.27-3.06-1.79-4.88-3.77-9.68-5.68-14.49H81c1,2.26,1.67,4.21,2.64,6,4.78,8.87,3.08,13.95-6,18.65C74.25,191.64,71.12,194,67.85,196.1Z"/><path class="cls-1" d="M29.72,130.13c0-6.7,1.55-8.26,8.36-8.28,2,0,4-.1,6,.09,3.49.34,5.77,2.68,5.6,5.77-.18,3.34-2.2,5.22-5.4,5.62-1.76.21-3.16.2-4.12,2.24a4.94,4.94,0,0,1-6.26,2.65,5.31,5.31,0,0,1-4.13-5.48C29.7,131.87,29.72,131,29.72,130.13Z"/></svg>